HIERARCHY
ROOT hip
{
  OFFSET 0 0 0
  CHANNELS 6 Xposition Yposition Zposition Zrotation Yrotation Xrotation
  JOINT abdomen
  {
    OFFSET 0 20.6881 -0.73152
    CHANNELS 3 Zrotation Xrotation Yrotation
    JOINT chest
    {
      OFFSET 0 11.7043 -0.48768
      CHANNELS 3 Zrotation Xrotation Yrotation
      JOINT neck
      {
        OFFSET 0 22.1894 -2.19456
        CHANNELS 3 Zrotation Xrotation Yrotation
        JOINT head
        {
          OFFSET -0.24384 7.07133 1.2192
          CHANNELS 3 Zrotation Xrotation Yrotation
          JOINT leftEye
          {
            OFFSET 4.14528 8.04674 8.04672
            CHANNELS 3 Zrotation Xrotation Yrotation
            End Site
            {
              OFFSET 1 0 0
            }
          }
          JOINT rightEye
          {
            OFFSET -3.6576 8.04674 8.04672
            CHANNELS 3 Zrotation Xrotation Yrotation
            End Site
            {
              OFFSET 1 0 0
            }
          }
        }
      }
      JOINT rCollar
      {
        OFFSET -2.68224 19.2634 -4.8768
        CHANNELS 3 Zrotation Xrotation Yrotation
        JOINT rShldr
        {
          OFFSET -8.77824 -1.95073 1.46304
          CHANNELS 3 Zrotation Xrotation Yrotation
          JOINT rForeArm
          {
            OFFSET -28.1742 -1.7115 0.48768
            CHANNELS 3 Zrotation Xrotation Yrotation
            JOINT rHand
            {
              OFFSET -22.5879 0.773209 7.07136
              CHANNELS 3 Zrotation Xrotation Yrotation
              JOINT rThumb1
              {
                OFFSET -1.2192 -0.487915 3.41376
                CHANNELS 3 Zrotation Xrotation Yrotation
                JOINT rThumb2
                {
                  OFFSET -3.37035 -0.52449 3.41376
                  CHANNELS 3 Zrotation Xrotation Yrotation
                  End Site
                  {
                    OFFSET -1.78271 -1.18214 1.43049
                  }
                }
              }
              JOINT rIndex1
              {
                OFFSET -7.75947 0.938293 5.60832
                CHANNELS 3 Zrotation Xrotation Yrotation
                JOINT rIndex2
                {
                  OFFSET -2.54057 -0.884171 1.56538
                  CHANNELS 3 Zrotation Xrotation Yrotation
                  End Site
                  {
                    OFFSET -1.62519 -0.234802 1.16502
                  }
                }
              }
              JOINT rMid1
              {
                OFFSET -8.24714 1.18213 3.41376
                CHANNELS 3 Zrotation Xrotation Yrotation
                JOINT rMid2
                {
                  OFFSET -3.10165 -0.590103 1.0647
                  CHANNELS 3 Zrotation Xrotation Yrotation
                  End Site
                  {
                    OFFSET -2.48547 -0.328903 0.83742
                  }
                }
              }
              JOINT rRing1
              {
                OFFSET -8.82822 0.546677 1.51678
                CHANNELS 3 Zrotation Xrotation Yrotation
                JOINT rRing2
                {
                  OFFSET -2.60934 -0.819778 -0.0198488
                  CHANNELS 3 Zrotation Xrotation Yrotation
                  End Site
                  {
                    OFFSET -2.33842 -0.294052 0.168128
                  }
                }
              }
              JOINT rPinky1
              {
                OFFSET -8.27202 -0.0477905 -0.4584
                CHANNELS 3 Zrotation Xrotation Yrotation
                JOINT rPinky2
                {
                  OFFSET -1.82734 -0.647385 -0.700984
                  CHANNELS 3 Zrotation Xrotation Yrotation
                  End Site
                  {
                    OFFSET -1.69225 -0.51767 -0.607171
                  }
                }
              }
            }
          }
        }
      }
      JOINT lCollar
      {
        OFFSET 2.68224 19.2634 -4.8768
        CHANNELS 3 Zrotation Xrotation Yrotation
        JOINT lShldr
        {
          OFFSET 8.77824 -1.95073 1.46304
          CHANNELS 3 Zrotation Xrotation Yrotation
          JOINT lForeArm
          {
            OFFSET 28.1742 -1.7115 0.48768
            CHANNELS 3 Zrotation Xrotation Yrotation
            JOINT lHand
            {
              OFFSET 22.5879 0.773209 7.07136
              CHANNELS 3 Zrotation Xrotation Yrotation
              JOINT lThumb1
              {
                OFFSET 1.2192 -0.487915 3.41376
                CHANNELS 3 Zrotation Xrotation Yrotation
                JOINT lThumb2
                {
                  OFFSET 3.37035 -0.52449 3.41376
                  CHANNELS 3 Zrotation Xrotation Yrotation
                  End Site
                  {
                    OFFSET 1.78271 -1.18214 1.43049
                  }
                }
              }
              JOINT lIndex1
              {
                OFFSET 7.75947 0.938293 5.60832
                CHANNELS 3 Zrotation Xrotation Yrotation
                JOINT lIndex2
                {
                  OFFSET 2.54057 -0.884171 1.56538
                  CHANNELS 3 Zrotation Xrotation Yrotation
                  End Site
                  {
                    OFFSET 1.62519 -0.234802 1.16502
                  }
                }
              }
              JOINT lMid1
              {
                OFFSET 8.24714 1.18213 3.41376
                CHANNELS 3 Zrotation Xrotation Yrotation
                JOINT lMid2
                {
                  OFFSET 3.10165 -0.590103 1.0647
                  CHANNELS 3 Zrotation Xrotation Yrotation
                  End Site
                  {
                    OFFSET 2.48547 -0.328903 0.83742
                  }
                }
              }
              JOINT lRing1
              {
                OFFSET 8.82822 0.546677 1.51678
                CHANNELS 3 Zrotation Xrotation Yrotation
                JOINT lRing2
                {
                  OFFSET 2.60934 -0.819778 -0.0198488
                  CHANNELS 3 Zrotation Xrotation Yrotation
                  End Site
                  {
                    OFFSET 2.33842 -0.294052 0.168128
                  }
                }
              }
              JOINT lPinky1
              {
                OFFSET 8.27202 -0.0477905 -0.4584
                CHANNELS 3 Zrotation Xrotation Yrotation
                JOINT lPinky2
                {
                  OFFSET 1.82734 -0.647385 -0.700984
                  CHANNELS 3 Zrotation Xrotation Yrotation
                  End Site
                  {
                    OFFSET 1.69225 -0.51767 -0.607171
                  }
                }
              }
            }
          }
        }
      }
    }
  }
  JOINT rButtock
  {
    OFFSET -8.77824 4.35084 1.2192
    CHANNELS 3 Zrotation Xrotation Yrotation
    JOINT rThigh
    {
      OFFSET 0 -1.70687 -2.19456
      CHANNELS 3 Zrotation Xrotation Yrotation
      JOINT rShin
      {
        OFFSET 0 -36.8199 0.73152
        CHANNELS 3 Zrotation Xrotation Yrotation
        JOINT rFoot
        {
          OFFSET 0.73152 -45.1104 -5.12064
          CHANNELS 3 Zrotation Xrotation Yrotation
          End Site
          {
            OFFSET -1.1221 -3.69964 12.103
          }
        }
      }
    }
  }
  JOINT lButtock
  {
    OFFSET 8.77824 4.35084 1.2192
    CHANNELS 3 Zrotation Xrotation Yrotation
    JOINT lThigh
    {
      OFFSET 0 -1.70687 -2.19456
      CHANNELS 3 Zrotation Xrotation Yrotation
      JOINT lShin
      {
        OFFSET 0 -36.8199 0.73152
        CHANNELS 3 Zrotation Xrotation Yrotation
        JOINT lFoot
        {
          OFFSET -0.73152 -45.1104 -5.12064
          CHANNELS 3 Zrotation Xrotation Yrotation
          End Site
          {
            OFFSET 1.1221 -3.69964 12.103
          }
        }
      }
    }
  }
}
MOTION
Frames:	4
Frame Time:	0.03333
0.16440595500171185 23.64133596420288 0.9747314266860485 -1.451928973197937 -0.19071997702121735 1.348288655281067 -0.3884868621826172 6.392082691192627 2.3821961879730225 1.061713695526123 -4.660524368286133 0.49178367853164673 -2.229698657989502 6.9676666259765625 -1.5544543266296387 4.513556003570557 -9.483100891113281 -2.917412757873535 0.16380074620246887 -0.4977855980396271 -0.24032582342624664 -0.16264156997203827 0.42102181911468506 -0.5266832113265991 -0.15052448213100433 0.007786756381392479 0.09922987967729568 15.078243255615234 9.564611434936523 7.713672637939453 -12.970898628234863 -6.347772598266602 16.653547286987305 0.8119519948959351 -3.706087827682495 -0.7025614976882935 -0.1895418018102646 0.5116952061653137 -0.5145331621170044 -0.5705886483192444 -0.07963374257087708 0.3569987416267395 -0.23944520950317383 0.598710834980011 -0.048804402351379395 3.992781162261963 3.7483713626861572 0.20410124957561493 0.28626692295074463 -0.47854122519493103 0.051857464015483856 2.500922441482544 0.08478522300720215 0.3772751986980438 -0.09002865850925446 -0.47812923789024353 0.04160151258111 5.399662971496582 0.36348801851272583 0.5610111355781555 -0.47539907693862915 0.19178889691829681 -0.37309718132019043 1.1298190355300903 -0.7735388278961182 -0.09245345741510391 -0.2140149474143982 0.4651133418083191 0.39995476603507996 -17.33644676208496 9.089539527893066 -10.315585136413574 11.212237358093262 -5.785096168518066 -16.62652015686035 -0.3631667196750641 -3.615028142929077 0.7139057517051697 -0.12763671576976776 0.30578377842903137 0.10990823805332184 0.14516882598400116 0.239070862531662 0.21206709742546082 -0.07123328000307083 0.17892897129058838 -0.1206616759300232 -4.229870796203613 2.399552583694458 -0.4767623245716095 0.6802816390991211 -0.12357888370752335 0.6059231162071228 -1.9135698080062866 0.5946773886680603 -0.0870661735534668 -0.016006018966436386 -0.02107125334441662 0.5776199102401733 -4.040914058685303 0.5914610028266907 -0.28355535864830017 0.49266231060028076 0.018812425434589386 -0.4051196575164795 -2.0711543560028076 0.0006894522230140865 -0.5969110727310181 -0.29834210872650146 0.5130625367164612 -0.0192885622382164 -5.877419471740723 -12.149121284484863 -5.974863052368164 -0.42545458674430847 17.414812088012695 0.18373696506023407 -2.3529953956604004 -4.188885688781738 -5.042373180389404 -0.49090060591697693 -0.0844869315624237 -0.25648781657218933 7.549420356750488 -10.658591270446777 5.939120769500732 -0.3692758083343506 17.762239456176758 -1.028892993927002 2.979593276977539 -5.690563201904297 4.659553527832031
0.044839316979050636 47.777777910232544 1.124627236276865 -3.447418451309204 -0.20841312408447266 3.3884711265563965 -1.524749517440796 10.880053520202637 3.008354902267456 2.427018880844116 -8.223994255065918 1.0250694751739502 -4.68628454208374 12.730558395385742 -3.597776412963867 7.622210502624512 -17.91035270690918 -4.998467922210693 0.1796897053718567 -0.21433256566524506 0.14662286639213562 0.21875259280204773 0.07757732272148132 -0.12138527631759644 -0.17442554235458374 0.14216920733451843 0.06283855438232422 32.28046417236328 23.1540470123291 12.7841796875 -22.744277954101562 -15.928521156311035 36.751224517822266 0.3533676862716675 -6.375786781311035 -1.1535271406173706 0.08295939862728119 -0.07295345515012741 -0.028126096352934837 0.0035278017167001963 0.24316103756427765 0.06879966706037521 0.25712087750434875 -0.05592544749379158 -0.3494548499584198 6.968304634094238 5.1842193603515625 0.5105153322219849 0.11602313816547394 -0.22433994710445404 0.21918885409832 2.8977437019348145 0.9616779088973999 0.38988861441612244 -0.34654465317726135 -0.007820299826562405 0.36570680141448975 8.937125205993652 0.8803714513778687 0.1094907745718956 -0.02566114440560341 0.07318620383739471 -0.27760881185531616 2.053105115890503 -0.6673700213432312 -0.24884243309497833 0.05546144023537636 0.12275267392396927 0.02399737760424614 -36.60139846801758 22.093055725097656 -20.059064865112305 21.094497680664062 -14.172648429870605 -35.325496673583984 -0.14638563990592957 -4.733355522155762 1.0743473768234253 -0.030367309227585793 -0.0303959883749485 -0.08402930945158005 0.0467228926718235 0.02356904186308384 -0.16602632403373718 -0.030856695026159286 0.08303719758987427 -0.049646005034446716 -6.906489372253418 4.5421271324157715 -0.40413278341293335 -0.05171079561114311 -0.06927619129419327 0.15652525424957275 -2.780663013458252 0.8882482051849365 -0.03880057856440544 0.2813917398452759 -0.030410291627049446 -0.10112567245960236 -8.519630432128906 0.6676927208900452 -0.17720969021320343 0.15973664820194244 0.14178454875946045 -0.001932939630933106 -2.424713373184204 -0.4295370578765869 -0.15753717720508575 -0.17846587300300598 0.29275718331336975 0.20070579648017883 -13.67817497253418 -23.97578239440918 -11.420637130737305 -0.08146180957555771 38.97816467285156 1.1806827783584595 -3.4944989681243896 -7.986621856689453 -8.569273948669434 -0.3103157579898834 0.18521001935005188 0.1376737505197525 16.925493240356445 -24.132892608642578 11.879119873046875 0.6142067313194275 40.677223205566406 -2.0284879207611084 4.039010524749756 -8.895051956176758 10.13670539855957
-0.21893843077123165 69.68558430671692 1.097607333213091 -1.164057970046997 10.675889015197754 4.143298149108887 -6.6153411865234375 15.998454093933105 3.0907695293426514 3.784172534942627 -11.502861022949219 1.2859842777252197 -8.243888854980469 18.212610244750977 -8.11338996887207 11.39061164855957 -27.107227325439453 -12.863263130187988 -0.054380644112825394 0.20672151446342468 -0.1306103616952896 -0.07211248576641083 -0.10345800966024399 0.2778332531452179 0.21634161472320557 0.07860787957906723 0.13802124559879303 40.49859619140625 27.18590545654297 28.661605834960938 -27.94370460510254 -26.637136459350586 57.81388854980469 -0.48811501264572144 0.6641494035720825 0.12228214740753174 -0.049409445375204086 -0.5024383068084717 0.23267734050750732 0.3208329379558563 0.27036502957344055 -0.3900166451931 0.3580970764160156 -0.07733232527971268 -0.1505022794008255 9.330032348632812 6.028187274932861 0.44829174876213074 -0.22474199533462524 -0.0457753911614418 0.16614051163196564 2.585127592086792 1.4992830753326416 0.08309315890073776 0.04708848148584366 0.17616936564445496 0.016902616247534752 11.330778121948242 0.6179017424583435 -0.03607785329222679 0.00834400299936533 0.015324595384299755 -0.002938550664111972 2.6137630939483643 -0.9584264755249023 -0.06479387730360031 0.27643781900405884 -0.23535701632499695 0.15256477892398834 -64.45451354980469 51.358219146728516 -13.355101585388184 29.49688148498535 -32.9951057434082 -68.25053405761719 0.9510222673416138 -26.297378540039062 4.7110595703125 -0.20471172034740448 -0.2196686863899231 0.09639914333820343 -0.0551607720553875 0.2716997265815735 -0.04899320378899574 -0.05864550918340683 -0.011553315445780754 -0.11591014266014099 -8.621524810791016 6.302096366882324 -0.491888165473938 -0.31101322174072266 -0.05179774761199951 0.10927867889404297 -2.7827484607696533 1.267005443572998 -0.1626751720905304 -0.037740882486104965 -0.36393582820892334 -0.1502540111541748 -11.80471420288086 0.9705924391746521 -0.13929887115955353 -0.023804672062397003 0.44688689708709717 -0.07723875343799591 -2.238778829574585 -0.7525237202644348 0.5312681198120117 0.04090799763798714 -0.1639162302017212 -0.028728418052196503 -34.92949295043945 -48.06398010253906 -29.900943756103516 -1.545851707458496 71.05585479736328 3.073024034500122 -2.141130208969116 -7.9229044914245605 -4.760915279388428 0.07314828038215637 0.1708371937274933 0.581917405128479 22.23592758178711 -30.605119705200195 15.064179420471191 2.394948959350586 62.84406661987305 -4.117763519287109 6.65525484085083 -14.315580368041992 20.70820426940918
0.03324882127344608 64.77228999137878 2.2511993534862995 7.709006309509277 29.448259353637695 1.4841798543930054 -12.671186447143555 14.69599437713623 2.0023021697998047 4.41466760635376 -11.499665260314941 1.1040562391281128 -10.050146102905273 18.46848487854004 -13.715920448303223 12.616747856140137 -28.422977447509766 -26.33759117126465 -0.2792927920818329 0.056948915123939514 -0.2344352900981903 0.02862350456416607 0.1002708449959755 0.9167798757553101 0.2641695737838745 -0.22866268455982208 -0.03992730751633644 31.755340576171875 0.48372742533683777 48.41236877441406 -24.595062255859375 -21.99915885925293 56.5032844543457 -1.0009328126907349 20.450838088989258 3.208022356033325 -0.5885691046714783 0.01194996852427721 -0.5007230043411255 0.0720401182770729 0.017006151378154755 -0.21508538722991943 -0.09044980257749557 0.6291738152503967 0.4088909924030304 8.053413391113281 5.492634296417236 0.6608881950378418 -0.48289915919303894 0.21844185888767242 -0.02703401818871498 2.967653512954712 0.7019404172897339 -0.515906572341919 0.6000393033027649 0.0039042700082063675 -0.467904657125473 9.674911499023438 0.6976181864738464 0.3922831416130066 0.3724653124809265 -0.5329309701919556 0.13795852661132812 2.0225841999053955 -1.079572081565857 0.25306272506713867 0.5622308850288391 0.06742343306541443 0.4010792076587677 -111.89742279052734 64.10130310058594 39.54136657714844 27.05474853515625 -43.00248718261719 -90.39358520507812 8.834794998168945 -62.1270637512207 16.416301727294922 -0.19945372641086578 0.3117358386516571 0.05252211540937424 -0.1466914415359497 -0.12550899386405945 0.8222793340682983 -0.19726459681987762 0.05690798535943031 -1.0354981422424316 -7.775136947631836 5.434537410736084 -0.7232888340950012 0.27057912945747375 -0.011953407898545265 0.3915080428123474 -2.87652587890625 0.9919847249984741 -0.13850167393684387 -0.0060793557204306126 0.13513879477977753 0.5479127764701843 -10.34335994720459 0.3021327555179596 -0.6012101173400879 -0.13238070905208588 0.28258979320526123 -0.159775048494339 -1.599732756614685 -0.9502391219139099 0.5379365682601929 -0.11660812795162201 -0.3002205789089203 -0.4862455725669861 -69.22940063476562 -59.874786376953125 -63.79643630981445 -8.993505477905273 81.37114715576172 9.701272010803223 0.7296120524406433 0.46947136521339417 6.546847343444824 0.1504698544740677 0.01899820938706398 0.2985917627811432 12.84660816192627 -15.327863693237305 8.335607528686523 0.5057607293128967 58.08624267578125 -3.0578129291534424 10.828883171081543 -19.436241149902344 30.108610153198242
